<svg width="14" height="9" viewBox="0 0 14 9" fill="white" xmlns="http://www.w3.org/2000/svg">
<path d="M7.82835 7.84933L12.775 2.90266C12.8844 2.79421 12.9712 2.66517 13.0304 2.523C13.0896 2.38083 13.1201 2.22834 13.1201 2.07433C13.1201 1.92032 13.0896 1.76783 13.0304 1.62566C12.9712 1.48349 12.8844 1.35445 12.775 1.246C12.5564 1.0287 12.2607 0.906738 11.9525 0.906738C11.6443 0.906738 11.3486 1.0287 11.13 1.246L7.00002 5.376L2.87002 1.246C2.65143 1.0287 2.35573 0.906738 2.04752 0.906738C1.7393 0.906738 1.44361 1.0287 1.22502 1.246C1.11689 1.35501 1.03134 1.48429 0.973285 1.62644C0.915227 1.76858 0.885797 1.92079 0.886685 2.07433C0.885797 2.22787 0.915227 2.38008 0.973285 2.52222C1.03134 2.66436 1.11689 2.79365 1.22502 2.90266L6.17169 7.84933C6.28014 7.95868 6.40918 8.04547 6.55135 8.1047C6.69351 8.16393 6.846 8.19443 7.00002 8.19443C7.15403 8.19443 7.30652 8.16393 7.44869 8.1047C7.59086 8.04547 7.7199 7.95868 7.82835 7.84933Z"/>
</svg>
